<svg xmlns="http://www.w3.org/2000/svg" viewBox="0 0 48 48"><g fill="none" fill-rule="evenodd"><circle cx="24" cy="24" r="24" fill="#FDF9F2"/><circle cx="24" cy="24.457" r="14.44" fill="#FDF9F2" fill-rule="nonzero"/><path fill="#734026" d="M24 40.417c-8.816 0-15.96-7.144-15.96-15.96S15.184 8.497 24 8.497s15.96 7.144 15.96 15.96-7.144 15.96-15.96 15.96Zm0-6.277 1.231-1.231L24 28.319l-1.231 4.59L24 34.139Zm-1.52-.122-.608 2.235 1.429-1.414-.821-.82Zm3.04 0-.806.821 1.414 1.414-.608-2.235Zm1.11 4.15L24 35.538l-2.63 2.63h.016c1.732.334 3.496.334 5.213 0h.03ZM24 10.504v-.015c-7.722 0-13.954 6.247-13.954 13.968 0 5.944 3.77 11.248 9.394 13.194l2.964-11.08a2.649 2.649 0 0 1-.517-3.725 2.63 2.63 0 0 1 3.709-.517 2.65 2.65 0 0 1 0 4.241l2.98 11.081h-.016c7.28-2.508 11.157-10.458 8.649-17.754A13.984 13.984 0 0 0 24 10.49v.015Z"/><path fill="#734026" d="m33.12 31.373-.015.016a1.003 1.003 0 0 1-1.383.182h.015a.93.93 0 0 1-.243-1.292l.03-.03.046-.076a10.263 10.263 0 0 0-.092-11.598l.046.091a.906.906 0 0 1 .167-1.292c.015-.015.03-.03.046-.03v-.015a1.024 1.024 0 0 1 1.383.212 12.072 12.072 0 0 1 0 13.832Zm-4.849-2.614h-.015a1.14 1.14 0 0 1 .06-1.52 4.358 4.358 0 0 0 0-5.563 1.16 1.16 0 0 1-.06-1.535h.015a.939.939 0 0 1 1.323-.107c.03.015.06.046.076.076l.045.03a6.563 6.563 0 0 1-.091 8.71l.046-.045a.958.958 0 0 1-1.353.03c0-.03-.03-.06-.046-.076Zm-8.542 0a.94.94 0 0 1-1.323.122c-.03-.03-.06-.046-.076-.076l-.045-.046a6.563 6.563 0 0 1 .091-8.71l-.046.061a.958.958 0 0 1 1.353-.03c0 .03.03.045.046.06h.015a1.16 1.16 0 0 1-.06 1.536 4.358 4.358 0 0 0 0 5.563c.41.426.425 1.08.06 1.52h-.015Zm-3.466 2.827a1.024 1.024 0 0 1-1.383-.213 12.072 12.072 0 0 1 0-13.832l.015-.015c.32-.425.943-.501 1.383-.182h-.015a.914.914 0 0 1 .228 1.292c0 .015 0 .015-.015.03l-.046.076a10.263 10.263 0 0 0 .092 11.598l-.046-.091a.906.906 0 0 1-.213 1.322v.015Z"/></g></svg>