<svg xmlns="http://www.w3.org/2000/svg" viewBox="0 0 48 48"><g fill="none" fill-rule="evenodd"><circle cx="24" cy="24" r="24" fill="#FDF9F2"/><path fill="#734026" fill-rule="nonzero" d="M26.749 27.297c-.559-.604-1.57-.982-2.749-.982-1.178 0-2.19.378-2.749.982-.302.317-.468.634-.513 1.102-.09.876-.046 1.647.06 2.87.106 1.163.287 2.719.544 4.304.166 1.118.317 1.722.438 2.16.211.71.997 1.33 2.22 1.33 1.223 0 2.009-.62 2.22-1.33.121-.438.272-1.042.438-2.16.257-1.585.438-3.141.544-4.304.106-1.223.15-1.994.06-2.87-.06-.468-.211-.785-.513-1.102Zm-5.86-5.362A3.107 3.107 0 0 0 24 25.046a3.107 3.107 0 0 0 3.111-3.11A3.117 3.117 0 0 0 24 18.823a3.117 3.117 0 0 0-3.111 3.111Zm3.08-12.264c-7.279.015-13.245 5.92-13.335 13.185-.06 5.906 3.7 10.935 8.94 12.793a.181.181 0 0 0 .242-.196c-.075-.469-.136-.922-.196-1.375a.43.43 0 0 0-.272-.362c-4.153-1.813-7.053-5.981-6.993-10.8.06-6.327 5.226-11.493 11.554-11.538 6.465-.045 11.75 5.195 11.75 11.66 0 4.772-2.884 8.88-7.007 10.678-.151.06-.242.211-.272.362-.06.453-.12.906-.196 1.375-.015.136.12.241.241.196 5.196-1.843 8.941-6.797 8.941-12.611 0-7.386-6.01-13.397-13.396-13.367Zm-.24 6.132c4.122-.166 7.52 3.142 7.52 7.235a7.19 7.19 0 0 1-2.28 5.27.55.55 0 0 0-.181.439c.03.498.015.981-.015 1.525-.015.151.15.242.272.166a8.938 8.938 0 0 0 3.911-7.4c0-5.06-4.198-9.153-9.303-8.942-4.743.182-8.534 4.078-8.594 8.82-.045 3.127 1.525 5.876 3.912 7.522.12.076.287-.015.271-.166a12.942 12.942 0 0 1-.015-1.525.59.59 0 0 0-.166-.438 7.149 7.149 0 0 1-2.295-5.468c.105-3.79 3.156-6.902 6.962-7.038Z"/></g></svg>