<svg xmlns="http://www.w3.org/2000/svg" viewBox="0 0 48 48"><g fill="none" fill-rule="evenodd"><circle cx="24" cy="24" r="24" fill="#FDF9F2"/><circle cx="24" cy="24.457" r="16.72" fill="#734026" fill-rule="nonzero"/><path fill="#FDF9F2" d="m31.174 34.246-2.888-3.982c1.81-1.338 2.995-3.466 2.995-5.883a7.296 7.296 0 0 0-7.296-7.28c-4.013 0-7.281 3.268-7.281 7.28a7.282 7.282 0 0 0 3.01 5.898l-2.888 3.998a12.218 12.218 0 0 1-5.062-9.896c0-6.748 5.472-12.205 12.22-12.205 6.75 0 12.222 5.457 12.222 12.205 0 4.059-1.992 7.646-5.032 9.865Zm-7.159-12.813a2.935 2.935 0 1 1-.003 5.87 2.935 2.935 0 0 1 .003-5.87Z"/></g></svg>