<svg xmlns="http://www.w3.org/2000/svg" viewBox="0 0 150 58"><g fill="none" fill-rule="nonzero"><path fill="#FDF9F2" d="m55.515 36.544-1.118 5.987c-3.365-.851-7.621-2.107-10.417-4.696 3.264-.293 10.652-1.184 11.462-1.282l.073-.01Zm-10.52-5.028c.864-.03 1.39-.038 1.879-.042l.363-.002c.549-.002 1.143-.004 2.21-.029 1.423.072 4.165 4.961 4.11 4.925-.904.115-3.097.434-5.443.726l-.786.097c-2.103.251-4.226.462-5.57.47-3.07.018-7.38-.381-11.082-1.906-5.837-2.404-6.84-3.84-7.331-4.247-.042-.036-.068-.032-.087-.004 0-.045.007-.117.168-.128.31-.021 7.817 1.502 21.568.14ZM24.181 8.518c.605.11 3.442.953 6.389 1.834l.655.196.549.164c3.19.954 6.17 1.84 6.22 1.767-.469.678-.1 2.248.323 2.954 1.124 1.87 2.574 3.573 4.53 4.72l.08.055a4.402 4.402 0 0 0-.409-.474c-2.057-2.456-3.794-4.738-3.489-6.439.41-2.29 4.352-3.604 6.536-3.929l.028-.082c2.36-.187 4.734.14 6.955.959.004.002 0 .014 0 .014 1.79.652 2.973 1.665 3.168 2.703.117.619-.113 1.22-.642 1.681-.492.43-2.03 2.049-1.147 4.8.659 2.049 2.16 3.513 4.462 4.35l-2.147 12.022-2.13.37s-3.34-4.347-3.565-4.852c.08-.02.1-.085.03-.094-5.245-.722-5.208-3.725-3.749-5.165.03-.012.047-.033.047-.05 0-.018-.012-.032-.042-.035-5.037-.596-5.584-3.294-4.282-4.76l.164-.013c-6.637.588-11.625-4.616-10.665-6.192-6.31-1.19-13.75-3.277-15.434-5.157-.075-.226-.132-.437-.1-.618.024-.13.113-.27.213-.389.161-.194.718-.524.912-.595 1.961-.716 4.663-.086 6.54.255Zm-7.934 16.481c4.648.902 6.77 1.18 8.866 1.295l.406.02c.204.01.408.018.617.026 6.316.324 10.008-.073 11.278-.304 2.764.058 5.767.101 9.034.15-1.739 1.979-.412 3.92 1.561 4.924-.313.003-.688.005-1.116.005h-.681c-5.987-.01-19.58-.262-23.735-1.287-4.763-1.174-7.828-3.882-8.196-5.275.058-.092.985.255 1.966.446Zm-8.989-7.307c.447.119 10.006 3.387 23.602 2.917.59-.027 1.37-.036 2.187-.037h.822c1.098.001 2.17.008 2.85-.01 1.677.685 3.772 1.109 5.697.717-1.865 1.584.25 3.712 2.037 4.598.003 0-5.777-.116-12.344-.515l-.776-.048a229.931 229.931 0 0 1-3.533-.25L27.018 25c-4.299-.358-8.394-.852-10.932-1.527-4.196-1.115-8.533-4.958-9.24-5.603-.004.002-.408-.493.413-.178Zm9.556-7.195c1.008 1.308 13.583 4.52 15.065 4.659-.535 1.305 1.595 3.902 4.33 5.313-7.533.024-20.695-1.524-29.411-4.343-3.246-1.05-5.582-3.126-6.69-4.952l-.093-.314a.387.387 0 0 1 .259-.48l.595-.17c3.968-1.214 9.446-.859 15.945.287Zm77.67 26.047s8.079.981 11.534 1.29c-2.794 2.59-7.051 3.846-10.415 4.697l-1.12-5.987Zm32.088-5.168c.162.011.17.083.17.128-.02-.028-.045-.032-.087.004-.492.407-1.496 1.843-7.33 4.247-3.704 1.525-8.013 1.924-11.082 1.907-3.025-.02-9.994-1.063-11.8-1.294-.055.036 2.687-4.853 4.109-4.925 1.067.025 1.661.027 2.21.03l.363.001c.488.004 1.015.013 1.88.042 13.751 1.362 21.259-.161 21.567-.14Zm5.785-23.113c.194.071.751.401.913.595.1.12.188.258.212.39.031.18-.025.391-.1.617-1.684 1.88-9.125 3.967-15.434 5.157.952 1.563-3.944 6.693-10.498 6.206l-.074-.081c1.392 1.448.918 4.234-4.21 4.84-.03.003-.043.017-.043.033 0 .02.017.04.046.052 1.46 1.44 1.498 4.443-3.749 5.165-.068.01-.05.074.031.094-.224.505-3.564 4.852-3.564 4.852l-2.13-.37-2.155-12.022c2.31-.838 3.812-2.302 4.47-4.352.883-2.75-.654-4.368-1.147-4.799-.528-.462-.757-1.062-.642-1.68.195-1.04 1.378-2.052 3.169-2.704 0 0-.005-.012-.001-.014a16.371 16.371 0 0 1 6.956-.96l.027.083c2.184.325 6.126 1.64 6.536 3.93.306 1.7-1.432 3.982-3.489 6.438a4.428 4.428 0 0 0-.407.472l.078-.052c1.956-1.147 3.405-2.85 4.53-4.72.424-.706.791-2.276.323-2.954.05.073 3.03-.813 6.22-1.767l.548-.164.656-.196c2.946-.88 5.783-1.724 6.388-1.834 1.878-.34 4.58-.971 6.54-.255Zm3.36 16.29c-.368 1.393-3.433 4.1-8.195 5.275-4.157 1.025-17.749 1.277-23.736 1.287h-.68c-.428 0-.804-.002-1.117-.005 1.974-1.004 3.301-2.945 1.56-4.924 3.268-.049 6.271-.092 9.035-.15 1.27.23 4.963.628 11.279.304 2.498-.088 4.491-.293 9.888-1.341.981-.19 1.908-.538 1.966-.446Zm7.437-6.683c-.706.645-5.045 4.488-9.24 5.603-2.539.675-6.634 1.169-10.933 1.527l-.783.063c-.393.031-.786.061-1.18.09l-.787.057c-.524.036-1.047.071-1.566.104l-.776.048c-6.567.399-12.346.515-12.344.515 1.788-.886 3.903-3.014 2.037-4.598 1.926.392 4.02-.032 5.697-.717.681.018 1.752.011 2.85.01h.822c.816.001 1.596.01 2.187.037 13.596.47 23.156-2.798 23.602-2.917.821-.315.417.18.414.178Zm5.975-7.66.594.17c.205.062.32.276.26.48l-.094.314c-1.107 1.826-3.444 3.902-6.69 4.952-8.715 2.82-21.878 4.367-29.41 4.343 2.735-1.411 4.865-4.008 4.33-5.313 1.482-.14 14.057-3.351 15.065-4.659 6.499-1.146 11.98-1.501 15.945-.287Z"/><path fill="#713F26" d="M49.448 31.444c.38.01.752-.025 1.1-.112.082-.021.1-.086.03-.094-5.245-.723-5.208-3.726-3.749-5.165.03-.013.047-.034.047-.05v-.002c0-.016.224-.222.195-.227-5.128-.604-5.837-3.106-4.444-4.553.087-.062.146-.121.085-.118-6.591.344-11.361-4.621-10.401-6.198-6.337-1.195-14.076-3.197-15.715-5.084l.22.657c1.399 2.222 13.11 4.812 14.591 4.95-.534 1.307 1.236 3.256 3.971 4.669-7.532.022-19.654-1.494-28.37-4.315-3.246-1.05-5.792-2.802-6.9-4.628.375 1.263 2.144 4.04 6.173 5.503.356.129 1.665.506 2.039.604 5.428 1.61 15.562 2.91 22.416 3.382 2.449.168 4.58.163 5.942.127 1.408.527 2.972.92 4.834.954-.839 1.673-.332 2.812 1.455 3.698.004 0 .085.043.089.044-8.982-.199-19.675-.57-27.135-2.554-4.196-1.115-8.368-4.418-9.075-5.061.66 1.386 4.034 3.981 7.211 5.322 6.233 2.634 15.441 2.717 31.849 2.957-1.288 1.541-.867 3.646 1.107 4.65-4.388.045-19.466-.38-24.122-1.528-4.761-1.174-8.24-3.325-8.609-4.718-.409.642 1.807 2.416 2.111 2.645 1.622 1.216 3.994 2.454 5.867 2.897 4.364 1.035 15.107 1.62 27.187 1.347l.001.001Zm-9.755-14.739c.172.243 2.246 2.79 2.805 3.253.25.205.59.327.138-.214-2.058-2.455-3.756-4.7-3.45-6.4.41-2.29 4.194-3.652 6.38-3.978l.032-.095c-2.18.229-7.288 1.418-7.197 4.194.04 1.17.614 2.285 1.292 3.24Zm5.216 21.196c3.456-.31 7.39-.848 8.705-1.017 1.11-.091-1.16-.568-1.16-.568-1.807.231-7.873.907-10.898.925-3.07.017-6.975-.369-10.678-1.893-5.836-2.404-7.042-3.433-7.533-3.84-.075-.063-.115-.015-.06.088.293.754 4.202 3.326 7.138 4.392 3.764 1.367 7.684 2.172 10.752 2.154.256-.002.684.026 1 .01 1.044.008 1.776.143 2.1.315.392.207 5.298 4.024 10.531 4.925l.251-.957c-3.393-.85-7.299-1.895-10.148-4.534Z"/><path fill="#724026" d="M100.551 31.444c-.37.014-.74-.024-1.1-.112-.08-.021-.1-.085-.03-.094 5.247-.723 5.208-3.726 3.75-5.165-.03-.013-.047-.034-.047-.05v-.002c0-.016-.225-.222-.195-.227 5.129-.604 5.837-3.106 4.443-4.553-.087-.062-.146-.121-.084-.118 6.591.344 11.361-4.621 10.4-6.197 6.338-1.196 14.077-3.198 15.716-5.085l-.22.657c-1.4 2.222-13.11 4.812-14.592 4.95.535 1.307-1.235 3.256-3.971 4.669 7.533.022 19.655-1.494 28.371-4.315 3.244-1.05 5.791-2.802 6.898-4.628-.372 1.263-2.142 4.04-6.171 5.503-.356.129-1.665.506-2.04.604-5.427 1.61-15.562 2.91-22.415 3.382a63.993 63.993 0 0 1-5.941.127c-1.41.528-2.972.92-4.835.954.839 1.673.333 2.812-1.456 3.698-.004 0-.083.043-.088.044 8.981-.199 19.674-.57 27.135-2.554 4.196-1.115 8.369-4.418 9.075-5.061-.66 1.386-4.034 3.981-7.212 5.322-6.233 2.634-15.44 2.717-31.848 2.957 1.287 1.541.866 3.646-1.106 4.65 4.386.045 19.465-.38 24.12-1.528 4.762-1.174 8.24-3.325 8.61-4.718.41.642-1.806 2.416-2.112 2.645-1.62 1.216-3.993 2.454-5.867 2.897-4.364 1.035-15.106 1.62-27.187 1.347v.001Zm9.756-14.738c-.173.242-2.246 2.789-2.805 3.252-.249.205-.591.327-.138-.214 2.058-2.455 3.755-4.7 3.45-6.4-.41-2.29-4.195-3.652-6.38-3.978l-.033-.095c2.18.229 7.288 1.418 7.197 4.194-.038 1.17-.614 2.285-1.291 3.24ZM105.09 37.9c-3.455-.31-7.39-.848-8.703-1.017-1.112-.091 1.16-.568 1.16-.568 1.805.231 7.872.907 10.897.925 3.07.018 6.975-.369 10.678-1.893 5.836-2.404 7.041-3.433 7.533-3.84.075-.063.114-.015.059.088-.292.754-4.201 3.326-7.137 4.392-3.764 1.367-7.683 2.172-10.753 2.154-.255-.002-.684.026-.999.01-1.044.008-1.776.143-2.1.315-.393.208-5.298 4.024-10.532 4.925l-.25-.957c3.393-.85 7.3-1.895 10.147-4.534Z"/><path fill="#734026" d="m72.263 57.384-18.7-8.713a8.463 8.463 0 0 1-4.895-8.094L50.42 9.725a7.988 7.988 0 0 1 7.044-7.596L74.053.061l.016-.003a8.07 8.07 0 0 1 1.932 0l.017.003 16.588 2.068a7.988 7.988 0 0 1 7.044 7.596l1.751 30.853.003.074a8.464 8.464 0 0 1-4.897 8.02l-18.7 8.712a6.552 6.552 0 0 1-5.544 0Z"/><path fill="#FDF9F2" d="M75.036 54.873c-.5-.001-.993-.11-1.446-.322l-18.7-8.712a5.343 5.343 0 0 1-3.092-5.086L53.55 9.882a4.872 4.872 0 0 1 4.303-4.65l16.588-2.07c.394-.047.79-.048 1.183 0l16.597 2.07a4.87 4.87 0 0 1 4.3 4.648l1.751 30.872v.022a5.343 5.343 0 0 1-3.092 5.065L76.483 54.55c-.46.215-.954.322-1.447.322ZM54.303 40.882a2.849 2.849 0 0 0 1.649 2.69l18.698 8.712a.911.911 0 0 0 .772 0L94.12 43.57a2.849 2.849 0 0 0 1.649-2.688L94.018 10.01l-.001-.02a2.378 2.378 0 0 0-2.102-2.277l-16.597-2.07a2.38 2.38 0 0 0-.57 0L58.162 7.716a2.38 2.38 0 0 0-2.108 2.298L54.302 40.88Z"/><path fill="#FDF9F2" d="m78.074 22.522.101 18.28-2.7-.004-.002-27.316L86.785 31.89l-.42-17.702 2.555.003.801 27.402-11.647-19.071Zm-16.77 18.424c-.365 0-.73 0-1.052-.122l.092-2.846c.326.15.684.218 1.042.203 3.188.003 5.528-2.21 5.585-5.395.084-4.581-5.48-6.132-5.31-11.804.13-4.322 3.548-7.18 7.722-7.176h.192l-.032 2.418h-.193c-2.732-.003-5.011 1.882-5.082 4.76-.103 4.212 5.449 6.023 5.376 11.804-.06 4.793-3.47 8.162-8.34 8.158"/></g></svg>