<svg xmlns="http://www.w3.org/2000/svg" viewBox="0 0 152 55"><g fill="none" fill-rule="evenodd"><path fill="#734026" fill-rule="nonzero" d="M151.001 25.2v5.4h-2.4c-5.5 0-8.6-3.3-8.6-9.3v-6.8h-7.4v16.1h-5.6V14.5h-3.1l-.1-4.6h3.1v-.6c0-6 3-9.3 8.6-9.3h2.4v5.4h-2.4c-2 0-2.9 1.3-2.9 4v.6h7.4V6l5.6-3.6v7.4h4v4.6h-4v6.8c0 2.7 1 4 2.9 4h2.5Zm-75.5-15.6h5.6v21h-5.6v-2c-1.7 1.7-4 2.7-6.4 2.6-5.7 0-10.1-4.8-10.1-11s4.4-11 10.1-11c2.4-.1 4.7.8 6.4 2.5V9.6Zm0 10.5c0-3.5-2.4-6.1-5.6-6.1-3.2 0-5.6 2.6-5.6 6.1 0 3.5 2.3 6.1 5.6 6.1s5.6-2.5 5.6-6.1Zm12.9-8.7V9.6h-5.4v21h5.6v-9.5c0-4.5.8-6.8 5-6.8h1.5V8.9h-.2c-3 0-5.2.9-6.5 2.5Zm8.1 19.1h5.6V.1h-5.6v30.4Zm-81-24.7c3.2 0 6.1 1.8 7.6 4.5l.1.2.2-.1 4.8-3.1.3-.1-.1-.2c-2.9-4.3-7.7-6.9-12.8-6.9-8.5-.1-15.5 6.7-15.6 15.1v.3c-.1 8.5 6.8 15.4 15.3 15.5h.3c5.1.1 9.9-2.5 12.8-6.7l.1-.2-5.2-3.4-.1.2c-1.6 2.7-4.5 4.4-7.6 4.5-5.2 0-9.2-4.3-9.2-9.8 0-4.8 3.4-9.8 9.1-9.8Zm14.6 24.7h5.6V.1h-5.6v30.4Zm94-10.5c0 .6 0 1.1-.1 1.7v.5h-14.8c.5 2.5 2.8 4.3 5.4 4.1 2 0 3.9-.7 5.5-2l.4-.3 2.8 4-.3.3c-2.4 2-5.5 3.1-8.6 3-6.4 0-10.8-4.6-10.8-11.1s4.3-11.1 10.6-11.1c5.7-.2 9.8 4.4 9.9 10.9Zm-5.7-2.2c-.6-2.5-2.2-3.9-4.5-3.9-2.4-.1-4.4 1.6-4.7 3.9h9.2Zm-60.7 2.2c0 .6 0 1.1-.1 1.7v.5h-14.8c.5 2.5 2.8 4.3 5.4 4.1 2 0 3.9-.7 5.5-2l.4-.3 2.8 4-.3.3c-2.4 2-5.5 3.1-8.6 3-6.4 0-10.8-4.6-10.8-11.1s4.3-11.3 10.5-11.3c5.9 0 10 4.6 10 11.1Zm-5.6-2.2c-.6-2.5-2.2-3.9-4.5-3.9-2.4-.1-4.4 1.6-4.7 3.9h9.2Z"/><path stroke="#FDF9F2" stroke-dasharray="150" stroke-width="13" d="M-2.599 47.1s50.4-6.3 81.9-6c31.5.3 77.1 4.6 77.1 4.6"/></g></svg>