<svg xmlns="http://www.w3.org/2000/svg" viewBox="0 0 400 400"><path fill="#FDF9F2" fill-rule="evenodd" d="m200 390.262-31.287 7.276-27.507-16.588-32.004-2.749-21.035-24.276-29.588-12.504-12.504-29.588-24.276-21.035-2.749-32.004-16.588-27.507L9.738 200l-7.276-31.287 16.588-27.507 2.749-32.004 24.276-21.035 12.504-29.588 29.588-12.504 21.035-24.276 32.004-2.749 27.507-16.588L200 9.738l31.287-7.276 27.507 16.588 32.004 2.749 21.035 24.276 29.588 12.504 12.504 29.588 24.276 21.035 2.749 32.004 16.588 27.507L390.262 200l7.276 31.287-16.588 27.507-2.749 32.004-24.276 21.035-12.504 29.588-29.588 12.504-21.035 24.276-32.004 2.749-27.507 16.588z"/></svg>